PathFileType	4	(X/Y/Z)	C:/Users/beibeiliu/ov580/test_trc/User3\sequence.21_training_dense_right.trc
DataRate	CameraRate	NumFrames	NumMarkers	Units	OrigDataRate	OrigDataStartFrame	OrigNumFrames
120	120	12	19	mm	120	1	265
Frame#	Time	ThumbCMC			ThumbMCP			ThumbIP			ThumbTip			IndexMCP			IndexPIP			IndexTip			MiddleMCP			MiddlePIP			MiddleTip			RingMCP			RingPIP			RingTip			PinkyMCP			PinkyPIP			PinkyTip			BackHand1			BackHand2			BackHand3	
		X0	Y0	Z0	X1	Y1	Z1	X2	Y2	Z2	X3	Y3	Z3	X4	Y4	Z4	X5	Y5	Z5	X6	Y6	Z6	X7	Y7	Z7	X8	Y8	Z8	X9	Y9	Z9	X10	Y10	Z10	X11	Y11	Z11	X12	Y12	Z12	X13	Y13	Z13	X14	Y14	Z14	X15	Y15	Z15	X16	Y16	Z16	X17	Y17	Z17	X18	Y18	Z18	
0	0	130.712	-9.27012	-19.4995	113.466	-20.1926	-41.1329	96.4505	-27.7471	-66.3694	86.0265	-37.7616	-80.6475	133.11	-17.1845	-98.5215	117.16	-45.2205	-106.879	118.828	-61.3463	-82.6326	148.733	-31.5156	-101.337	138.169	-62.9259	-102.058	147.059	-67.4787	-63.6969	170.036	-39.032	-93.3037	157.518	-70.3291	-93.2505	156.431	-67.1314	-58.5273	189.382	-43.9556	-84.03	173.683	-67.6713	-92.8942	163.316	-84.0994	-75.1255	189.826	-6.07382	-48.0108	195.18	-1.97144	-24.1296	162.068	7.02468	-33.9538	
1	0.00833333	142.178	-12.2774	-13.8435	113.162	-16.1759	-33.105	97.8101	-24.4693	-59.1674	93.4688	-35.7927	-80.2202	133.532	-15.9849	-93.4857	117.647	-45.0412	-104.597	111.567	-57.2148	-76.9091	144.723	-28.4667	-102.282	126.704	-57.512	-102.672	140.602	-65.1115	-65.3551	162.009	-39.6013	-98.8851	149.187	-67.6949	-96.7168	153.314	-67.8267	-62.0907	179.59	-43.1404	-91.6996	165.615	-67.3745	-96.0862	166.383	-75.3237	-67.1508	189.009	-9.80153	-56.9964	200.423	-4.53737	-27.4584	166.016	4.76632	-32.6697	
2	0.0166667	135.127	-11.8121	-16.3945	113.015	-17.5254	-37.7904	100.709	-25.7924	-61.4658	88.2578	-36.2519	-79.9308	134.763	-17.2294	-97.5553	120.392	-43.6905	-108.943	120.755	-60.7586	-82.2194	147.543	-30.7144	-99.4129	135.846	-64.5579	-96.7354	149.501	-62.0155	-61.4121	169.077	-43.4599	-97.674	154.516	-70.3604	-90.2152	158.643	-68.8522	-58.8943	182.901	-43.3738	-90.0984	174.731	-67.6392	-94.8206	168.215	-79.3952	-63.299	191.227	-8.65457	-54.815	197.744	-3.1658	-23.7713	163.378	4.60337	-32.0199	
3	0.025	136.342	-12.1323	-18.7134	115.284	-17.8026	-33.7924	98.6218	-25.2565	-62.5259	90.7296	-37.0751	-80.8476	132.425	-17.3875	-94.0718	116.176	-45.8747	-105.885	121.228	-55.682	-73.7535	142.675	-27.8859	-100.023	128.719	-61.8464	-100.965	142.543	-69.9533	-65.2496	160.301	-40.9378	-98.5671	157.236	-69.3136	-96.6121	155.216	-67.5044	-60.3962	179.332	-43.2395	-88.4035	166.755	-69.3789	-92.2675	166.022	-74.8758	-62.627	187.154	-8.78908	-55.5986	197.21	-3.5882	-26.0942	161.589	5.68195	-35.5122	
4	0.0333333	136.003	-12.6064	-18.5775	115.829	-18.7897	-39.3017	95.9453	-26.5285	-58.8836	93.4701	-38.0634	-80.7256	131.455	-16.637	-93.3223	120.404	-47.4357	-105.957	116.987	-53.7657	-73.4906	143.583	-33.1296	-104.014	131.746	-64.0328	-99.9582	142.365	-67.091	-61.7023	160.28	-40.921	-99.5699	153.586	-68.1041	-96.6629	157.124	-68.8996	-62.0482	181.741	-43.0305	-93.0579	169.909	-68.5535	-94.7315	168.787	-73.5327	-64.6766	190.58	-8.57192	-58.1329	197.065	-4.51168	-27.419	163.537	3.75385	-37.279	
5	0.0416667	134.147	-12.1554	-15.3345	113.8	-18.5691	-38.6955	96.248	-25.6245	-64.3574	94.8075	-37.7119	-84.8384	132.756	-18.3757	-96.6014	116.86	-43.9762	-109.555	121.376	-60.1187	-79.6947	142.67	-33.7908	-104.113	132.667	-64.1667	-98.5529	147.943	-61.3789	-61.0989	165.161	-41.8353	-98.7475	155.931	-68.4701	-95.8503	157.835	-67.1084	-61.1403	179.179	-43.9319	-89.9083	170.565	-69.6883	-88.9539	170.993	-72.1335	-60.4515	187.133	-7.87185	-57.1936	197.731	-2.74596	-29.1952	162.147	5.80398	-35.5834	
6	0.05	131.877	-11.8257	-15.0951	114.128	-19.3642	-38.2645	97.2498	-27.1283	-62.5029	98.1022	-40.9942	-85.6807	133.381	-18.0974	-96.3348	118.147	-44.5156	-109.461	124.758	-55.5296	-74.3389	142.767	-33.6553	-104.783	135.935	-63.6999	-100.764	149.458	-60.721	-62.5088	163.675	-39.8023	-97.9461	156.572	-69.6424	-94.3009	155.883	-64.3602	-58.0896	177.758	-44.4542	-90.3005	168.587	-69.151	-88.9914	172.832	-70.9238	-55.7103	189.144	-7.34615	-54.6018	199.077	-3.70878	-26.8204	161.511	5.07823	-34.5646	
7	0.0583333	134.49	-11.2467	-16.4467	113.567	-17.4314	-34.8492	99.6359	-25.1105	-64.9907	91.7645	-35.8121	-84.0788	132.191	-15.5223	-93.0284	117.063	-45.5678	-105.373	123.339	-59.3242	-77.0483	149.574	-31.5661	-103.26	137.143	-63.5731	-99.4679	148.366	-61.73	-63.6544	165.477	-40.801	-99.0831	156.977	-70.5987	-93.0538	155.47	-65.9675	-60.8768	181.451	-42.4698	-87.3872	170.727	-66.3957	-92.3333	168.01	-78.1997	-61.1138	186.869	-5.75255	-54.9129	198.364	-4.68535	-23.9243	159.822	5.90447	-36.2161	
8	0.0666667	136.172	-12.5279	-17.4435	113.63	-17.3026	-35.8566	98.855	-24.9482	-65.5248	92.8676	-35.6837	-85.7	131.483	-16.0897	-96.7313	119.072	-46.8077	-107.026	118.682	-59.4737	-75.2269	147.245	-26.3424	-99.9643	135.667	-57.9753	-103.877	146.103	-60.0935	-61.5345	170.143	-41.5593	-98.3989	158.539	-66.766	-97.5385	157.96	-67.2084	-62.3114	186.187	-43.5694	-89.5553	169.365	-64.5886	-90.8254	171.679	-72.6151	-59.4978	191.714	-6.53656	-51.913	195.63	-2.26812	-20.2205	163.333	3.7975	-31.8433	
9	0.075	133.678	-10.5679	-20.0868	115.391	-17.6541	-39.8354	101.024	-23.7818	-68.2786	92.6878	-32.4994	-88.665	136.28	-18.1662	-97.4372	118.797	-43.7845	-106.729	118.26	-66.2916	-82.9865	151.712	-26.1253	-101.178	136.184	-60.1513	-101.653	137.464	-68.7772	-66.5776	168.144	-36.8855	-95.2786	153.307	-67.0197	-92.6131	155.467	-63.5582	-59.2312	186.772	-44.2028	-87.1137	168.712	-69.2812	-92.1281	163.722	-77.3864	-63.5663	190.889	-8.32071	-50.6699	202.853	-8.46925	-22.6205	168.441	3.50152	-32.6775	
10	0.0833333	137.209	-14.4431	-16.1464	117.497	-19.1285	-40.8692	102.337	-25.3295	-65.9202	88.4755	-30.0233	-84.7384	134.917	-18.5236	-98.5427	125.884	-47.5782	-105.58	116.434	-63.0686	-74.5513	156.135	-30.3253	-101.869	138.525	-59.6029	-101.833	145.504	-59.9125	-61.3891	171.405	-42.8055	-98.3672	160.072	-68.2528	-94.093	159.642	-63.6829	-57.6095	186.869	-43.8557	-89.7408	168.797	-66.1261	-90.7745	170.93	-72.2358	-60.8672	191.472	-8.23628	-53.2291	199.196	-8.83535	-21.1954	163.751	3.66146	-31.9422	
11	0.0916667	134.136	-11.7444	-21.5536	118.163	-17.4355	-41.2706	104.257	-22.9957	-65.3957	93.0745	-27.9127	-84.8786	136.143	-17.2706	-97.2903	125.983	-47.3816	-106.499	120.082	-52.0526	-72.2023	152.741	-29.1187	-101.91	139.594	-61.231	-102.393	143.817	-60.7277	-64.1743	166.146	-39.4315	-98.1297	158.165	-68.6962	-96.1924	154.384	-66.5782	-63.7886	187.168	-44.0311	-90.8558	171.905	-64.7115	-95.6753	169.968	-72.5784	-61.466	193.226	-11.1083	-54.3599	198.662	-8.02761	-25.5759	166.375	2.91605	-37.3982	
